<?xml version="1.0" standalone="no"?>
<!DOCTYPE svg PUBLIC "-//W3C//DTD SVG 20010904//EN"
 "http://www.w3.org/TR/2001/REC-SVG-20010904/DTD/svg10.dtd">
<svg version="1.0" xmlns="http://www.w3.org/2000/svg"
 width="512.000000pt" height="512.000000pt" viewBox="0 0 512.000000 512.000000"
 preserveAspectRatio="xMidYMid meet">
<metadata>
Created by potrace 1.11, written by Peter Selinger 2001-2013
</metadata>
<g transform="translate(0.000000,512.000000) scale(0.100000,-0.100000)"
fill="#000000" stroke="none">
<path d="M1531 3982 c-24 -9 -53 -29 -64 -44 -19 -26 -19 -33 -7 -365 12 -336
11 -1265 -2 -1278 -3 -3 -95 -24 -205 -46 -381 -77 -822 -193 -876 -231 -55
-39 -71 -116 -38 -178 20 -38 88 -80 129 -80 14 0 105 22 202 50 261 73 765
188 777 176 2 -2 -4 -114 -13 -248 -9 -135 -14 -257 -10 -271 10 -42 49 -61
120 -60 45 0 77 7 112 24 42 21 53 34 78 84 17 35 28 73 27 90 -6 62 -4 234 3
336 l8 106 226 31 c125 18 253 35 285 38 l57 7 1 -59 c0 -33 10 -242 22 -467
l23 -407 25 -26 c34 -34 94 -46 160 -34 60 12 92 29 115 66 16 24 16 54 -8
492 -14 257 -24 468 -23 469 2 4 353 43 385 43 l30 0 -1 -317 c0 -398 17 -530
88 -679 33 -71 65 -88 145 -81 71 6 155 51 181 95 24 40 16 81 -25 124 -50 54
-59 123 -65 534 l-5 361 43 6 c120 15 369 40 373 36 2 -2 9 -117 15 -256 15
-322 29 -474 45 -491 22 -22 88 -25 156 -8 79 20 128 50 136 82 4 14 1 97 -6
184 -6 88 -15 243 -18 345 l-7 185 25 4 c14 3 115 17 225 31 289 38 342 50
381 89 34 34 51 88 40 131 -10 40 -64 94 -106 105 -31 8 -85 4 -280 -25 -132
-19 -251 -35 -265 -35 -28 0 -22 -29 -61 320 -32 288 -31 524 1 576 37 61 -6
88 -126 82 -98 -6 -165 -36 -185 -85 -37 -86 -36 -303 2 -598 9 -71 17 -177
18 -235 l1 -105 -155 -16 c-85 -10 -179 -20 -207 -23 l-53 -6 0 231 c0 126 5
330 11 452 7 122 12 278 13 346 l1 124 -28 21 c-61 45 -220 16 -262 -48 -11
-16 -19 -65 -25 -148 -15 -203 -30 -600 -30 -810 0 -109 -1 -198 -2 -199 -12
-4 -414 -46 -416 -44 -2 2 -21 324 -42 716 -43 800 -35 751 -121 778 -79 26
-211 -19 -226 -77 -6 -22 43 -1072 64 -1377 l6 -80 -249 -33 c-137 -18 -258
-35 -269 -38 -20 -5 -20 0 -21 628 -1 710 -11 947 -40 980 -44 48 -133 61
-213 30z"/>
</g>
</svg>
